<svg width="248" height="51" viewBox="0 0 248 51" fill="none" xmlns="http://www.w3.org/2000/svg">
<rect x="17.5308" width="18.3462" height="50" rx="9.17308" fill="#2F7EF7"/>
<rect x="53" y="16.5381" width="16.9231" height="53" rx="8.46154" transform="rotate(90 53 16.5381)" fill="#2F7EF7"/>
<path d="M16.4831 16.1258C21.2037 16.7604 24.2658 20.0082 26.4211 23.5009C27.6139 25.467 28.6198 27.5617 30.1829 29.238C31.3429 30.4891 32.7018 31.5393 34.1938 32.4701C35.1898 33.0861 36.2446 33.6337 37.5666 33.8109C36.844 33.9101 36.1401 33.876 35.4825 33.7603C33.5252 33.3798 31.8485 32.5515 30.3181 31.5523C28.7954 30.5485 27.553 29.1907 26.588 27.6761C25.6447 26.2067 24.8505 24.611 23.9256 23.156C22.0772 20.2381 19.8338 17.6564 16.4831 16.1258Z" fill="white"/>
<path d="M27.6908 23.295C27.6908 23.295 22.0913 18.6464 24.6984 12.4075C26.8475 7.26473 29.9088 6.27657 29.7555 2.18848C31.9734 4.03671 35.9995 8.84562 34.1395 14.5378C32.3199 20.1068 27.6908 23.295 27.6908 23.295Z" fill="white"/>
<path d="M29.7555 2.18848C32.4432 5.2819 32.4827 9.05561 31.1596 12.8053C29.9819 16.329 27.898 19.4242 27.4146 23.1089C27.3569 22.7893 27.2438 22.3687 27.236 22.0392C27.2081 21.4667 27.2547 20.8738 27.3407 20.3035C27.7623 17.5908 29.0382 14.9969 29.9066 12.4436C31.2175 8.7545 31.3628 5.72976 29.7555 2.18848Z" fill="#2F7EF7"/>
<path d="M25.9594 27.4748C25.9594 27.4748 20.2883 19.1258 13.8567 21.7856C8.55511 23.9781 7.70259 25.8336 2.13502 24.5452C4.15098 26.5346 8.65677 30.9874 15.4799 30.3124C21.5574 29.7109 25.9594 27.4748 25.9594 27.4748Z" fill="white"/>
<path d="M2.04825 24.6221C4.92877 26.1392 8.33346 26.4353 11.4767 25.7241C12.0289 25.6256 12.7032 25.4051 13.2435 25.2589C17.4334 23.866 22.7394 24.404 25.9552 27.4802C22.3149 25.8406 17.9886 25.6191 14.1865 26.772C14.0029 26.8263 13.6268 26.9302 13.4407 26.9792C13.2948 27.0178 12.5832 27.2085 12.4522 27.2395C11.9888 27.3173 11.495 27.4147 11.0292 27.472C10.7476 27.4854 10.0656 27.5553 9.79019 27.5559C9.58488 27.5516 9.16589 27.5441 8.96004 27.5392C6.41216 27.4228 3.72381 26.4876 2.04825 24.6221Z" fill="#2F7EF7"/>
<path d="M58.0817 16.24H65.2097C66.4097 16.24 67.5197 16.492 68.5397 16.996C69.5717 17.488 70.3997 18.226 71.0237 19.21C71.6597 20.182 71.9777 21.388 71.9777 22.828C71.9777 24.268 71.6657 25.474 71.0417 26.446C70.4177 27.418 69.6677 28.15 68.7917 28.642C67.9157 29.134 67.0997 29.38 66.3437 29.38L72.3377 40H71.0057L65.1917 29.452H59.1977V40H58.0817V16.24ZM59.1977 28.372H64.8497C66.6497 28.372 68.0957 27.916 69.1877 27.004C70.2797 26.092 70.8257 24.7 70.8257 22.828C70.8257 20.956 70.2797 19.582 69.1877 18.706C68.0957 17.83 66.6497 17.392 64.8497 17.392H59.1977V28.372ZM76.7094 32.512C76.7094 33.676 76.9254 34.78 77.3574 35.824C77.7894 36.856 78.4494 37.696 79.3374 38.344C80.2254 38.992 81.3474 39.316 82.7034 39.316C83.7954 39.316 84.6894 39.13 85.3854 38.758C86.0934 38.386 86.6454 37.954 87.0414 37.462C87.4494 36.958 87.7314 36.52 87.8874 36.148L88.9494 36.868C88.4694 37.648 87.9354 38.308 87.3474 38.848C86.7594 39.376 86.0814 39.772 85.3134 40.036C84.5574 40.3 83.6694 40.432 82.6494 40.432C81.1014 40.432 79.7934 40.072 78.7254 39.352C77.6574 38.62 76.8474 37.648 76.2954 36.436C75.7554 35.212 75.4854 33.874 75.4854 32.422C75.4854 30.982 75.7614 29.686 76.3134 28.534C76.8774 27.382 77.6874 26.47 78.7434 25.798C79.8114 25.126 81.0954 24.79 82.5954 24.79C83.9274 24.79 85.0854 25.102 86.0694 25.726C87.0654 26.338 87.8394 27.178 88.3914 28.246C88.9434 29.314 89.2194 30.532 89.2194 31.9C89.2194 32.008 89.2134 32.116 89.2014 32.224C89.1894 32.32 89.1834 32.416 89.1834 32.512H76.7094ZM87.9414 31.36C87.9174 30.58 87.7374 29.77 87.4014 28.93C87.0774 28.09 86.5314 27.382 85.7634 26.806C84.9954 26.218 83.9394 25.924 82.5954 25.924C81.1794 25.924 80.0574 26.206 79.2294 26.77C78.4134 27.334 77.8194 28.036 77.4474 28.876C77.0874 29.716 76.8714 30.544 76.7994 31.36H87.9414ZM99.964 24.79C100.864 24.79 101.746 24.988 102.61 25.384C103.474 25.78 104.182 26.41 104.734 27.274C105.298 28.126 105.58 29.236 105.58 30.604V40H104.392V30.982C104.392 29.17 103.972 27.88 103.132 27.112C102.292 26.332 101.224 25.942 99.928 25.942C99.064 25.942 98.23 26.194 97.426 26.698C96.622 27.202 95.956 27.886 95.428 28.75C94.912 29.614 94.654 30.58 94.654 31.648V40H93.448V15.232H94.654V28.246C94.726 27.814 95.002 27.328 95.482 26.788C95.974 26.248 96.61 25.78 97.39 25.384C98.17 24.988 99.028 24.79 99.964 24.79ZM122.909 40V36.724C122.837 37.06 122.555 37.528 122.063 38.128C121.583 38.716 120.911 39.25 120.047 39.73C119.183 40.198 118.157 40.432 116.969 40.432C115.661 40.432 114.437 40.132 113.297 39.532C112.169 38.932 111.257 38.05 110.561 36.886C109.865 35.722 109.517 34.3 109.517 32.62C109.517 30.94 109.865 29.518 110.561 28.354C111.257 27.19 112.169 26.308 113.297 25.708C114.437 25.096 115.661 24.79 116.969 24.79C118.157 24.79 119.183 25.024 120.047 25.492C120.923 25.948 121.607 26.47 122.099 27.058C122.603 27.646 122.873 28.132 122.909 28.516V25.222H124.025V40H122.909ZM110.669 32.62C110.669 34.012 110.969 35.206 111.569 36.202C112.169 37.198 112.943 37.96 113.891 38.488C114.839 39.016 115.829 39.28 116.861 39.28C118.001 39.28 119.021 39.01 119.921 38.47C120.821 37.93 121.529 37.162 122.045 36.166C122.573 35.17 122.837 33.988 122.837 32.62C122.837 31.252 122.573 30.07 122.045 29.074C121.529 28.078 120.821 27.31 119.921 26.77C119.021 26.218 118.001 25.942 116.861 25.942C115.829 25.942 114.839 26.212 113.891 26.752C112.943 27.28 112.169 28.042 111.569 29.038C110.969 30.034 110.669 31.228 110.669 32.62ZM128.773 40V15.232H129.979V28.516C130.027 28.108 130.309 27.61 130.825 27.022C131.353 26.434 132.073 25.918 132.985 25.474C133.897 25.018 134.953 24.79 136.153 24.79C137.473 24.79 138.673 25.096 139.753 25.708C140.833 26.308 141.697 27.19 142.345 28.354C142.993 29.518 143.317 30.94 143.317 32.62C143.317 34.3 142.993 35.722 142.345 36.886C141.697 38.05 140.833 38.932 139.753 39.532C138.673 40.132 137.473 40.432 136.153 40.432C134.941 40.432 133.873 40.198 132.949 39.73C132.025 39.262 131.299 38.734 130.771 38.146C130.243 37.558 129.961 37.084 129.925 36.724V40H128.773ZM142.129 32.62C142.129 31.228 141.853 30.034 141.301 29.038C140.749 28.042 140.029 27.28 139.141 26.752C138.253 26.212 137.293 25.942 136.261 25.942C135.121 25.942 134.071 26.218 133.111 26.77C132.163 27.31 131.401 28.078 130.825 29.074C130.261 30.07 129.979 31.252 129.979 32.62C129.979 33.988 130.261 35.17 130.825 36.166C131.401 37.162 132.163 37.93 133.111 38.47C134.071 39.01 135.121 39.28 136.261 39.28C137.293 39.28 138.253 39.016 139.141 38.488C140.029 37.96 140.749 37.198 141.301 36.202C141.853 35.206 142.129 34.012 142.129 32.62Z" fill="#2F7EF7"/>
<path d="M150.048 21.21C150.084 21.102 150.228 20.868 150.48 20.508C150.732 20.148 151.11 19.764 151.614 19.356C152.118 18.936 152.766 18.576 153.558 18.276C154.362 17.964 155.328 17.808 156.456 17.808C157.98 17.808 159.234 18.09 160.218 18.654C161.214 19.218 161.952 19.962 162.432 20.886C162.924 21.81 163.17 22.818 163.17 23.91C163.17 24.93 162.96 25.848 162.54 26.664C162.12 27.468 161.574 28.122 160.902 28.626C160.23 29.118 159.516 29.412 158.76 29.508C159.516 29.556 160.278 29.814 161.046 30.282C161.826 30.75 162.474 31.41 162.99 32.262C163.518 33.102 163.782 34.128 163.782 35.34C163.782 36.66 163.476 37.86 162.864 38.94C162.252 40.008 161.394 40.86 160.29 41.496C159.186 42.12 157.884 42.432 156.384 42.432C155.016 42.432 153.84 42.204 152.856 41.748C151.872 41.292 151.074 40.734 150.462 40.074C149.862 39.414 149.442 38.778 149.202 38.166L150.246 37.536C150.45 38.076 150.81 38.634 151.326 39.21C151.842 39.786 152.52 40.278 153.36 40.686C154.2 41.082 155.196 41.28 156.348 41.28C157.68 41.28 158.808 41.01 159.732 40.47C160.656 39.93 161.352 39.21 161.82 38.31C162.3 37.41 162.54 36.42 162.54 35.34C162.54 34.116 162.246 33.12 161.658 32.352C161.07 31.584 160.302 31.02 159.354 30.66C158.418 30.288 157.416 30.102 156.348 30.102H155.88V28.986H156.492C157.44 28.986 158.334 28.788 159.174 28.392C160.014 27.996 160.692 27.426 161.208 26.682C161.736 25.926 162 25.02 162 23.964C162 22.572 161.538 21.39 160.614 20.418C159.702 19.446 158.298 18.96 156.402 18.96C155.406 18.96 154.572 19.098 153.9 19.374C153.228 19.638 152.694 19.95 152.298 20.31C151.914 20.67 151.632 20.994 151.452 21.282C151.284 21.558 151.2 21.708 151.2 21.732L150.048 21.21ZM175.59 26.826C177.018 26.826 178.308 27.168 179.46 27.852C180.612 28.536 181.53 29.472 182.214 30.66C182.898 31.836 183.24 33.168 183.24 34.656C183.24 36.144 182.88 37.476 182.16 38.652C181.44 39.816 180.474 40.74 179.262 41.424C178.062 42.096 176.742 42.432 175.302 42.432C173.814 42.432 172.482 42.084 171.306 41.388C170.13 40.692 169.2 39.732 168.516 38.508C167.832 37.284 167.49 35.886 167.49 34.314C167.49 32.742 167.772 31.392 168.336 30.264C168.912 29.136 169.608 28.056 170.424 27.024L177.372 18.24H178.848L170.604 28.518C170.964 28.11 171.582 27.726 172.458 27.366C173.334 27.006 174.378 26.826 175.59 26.826ZM175.41 41.316C176.646 41.316 177.768 41.016 178.776 40.416C179.784 39.804 180.588 38.994 181.188 37.986C181.788 36.966 182.088 35.838 182.088 34.602C182.088 33.366 181.788 32.244 181.188 31.236C180.588 30.228 179.784 29.424 178.776 28.824C177.768 28.224 176.646 27.924 175.41 27.924C174.174 27.924 173.046 28.224 172.026 28.824C171.018 29.424 170.208 30.228 169.596 31.236C168.996 32.244 168.696 33.366 168.696 34.602C168.696 35.838 168.996 36.966 169.596 37.986C170.208 38.994 171.018 39.804 172.026 40.416C173.046 41.016 174.174 41.316 175.41 41.316ZM186.986 30.138C186.986 27.978 187.232 26.124 187.724 24.576C188.216 23.016 188.87 21.738 189.686 20.742C190.502 19.746 191.402 19.008 192.386 18.528C193.382 18.048 194.378 17.808 195.374 17.808C196.382 17.808 197.378 18.048 198.362 18.528C199.358 19.008 200.258 19.746 201.062 20.742C201.866 21.738 202.508 23.016 202.988 24.576C203.48 26.124 203.726 27.978 203.726 30.138C203.726 32.25 203.48 34.08 202.988 35.628C202.508 37.164 201.866 38.436 201.062 39.444C200.258 40.452 199.358 41.202 198.362 41.694C197.378 42.186 196.382 42.432 195.374 42.432C194.378 42.432 193.382 42.186 192.386 41.694C191.402 41.202 190.502 40.452 189.686 39.444C188.87 38.436 188.216 37.164 187.724 35.628C187.232 34.08 186.986 32.25 186.986 30.138ZM188.21 30.138C188.21 32.61 188.552 34.674 189.236 36.33C189.92 37.986 190.808 39.228 191.9 40.056C192.992 40.872 194.15 41.28 195.374 41.28C196.61 41.28 197.768 40.872 198.848 40.056C199.94 39.228 200.822 37.986 201.494 36.33C202.178 34.674 202.52 32.61 202.52 30.138C202.52 27.618 202.178 25.536 201.494 23.892C200.822 22.236 199.94 21 198.848 20.184C197.768 19.368 196.61 18.96 195.374 18.96C194.15 18.96 192.992 19.368 191.9 20.184C190.808 21 189.92 22.236 189.236 23.892C188.552 25.548 188.21 27.63 188.21 30.138Z" fill="#2F7EF7"/>
</svg>
